<svg width="33" height="32" viewBox="0 0 33 32" fill="none" xmlns="http://www.w3.org/2000/svg">
<mask id="mask0_416_686" style="mask-type:alpha" maskUnits="userSpaceOnUse" x="0" y="0" width="33" height="32">
<rect x="0.75" width="32" height="32" fill="#D9D9D9"/>
</mask>
<g mask="url(#mask0_416_686)">
<path d="M14.6883 16L20.1193 21.4307C20.3037 21.6154 20.3982 21.8475 20.4026 22.127C20.4068 22.4064 20.3124 22.6427 20.1193 22.836C19.9259 23.0291 19.6917 23.1257 19.4166 23.1257C19.1415 23.1257 18.9073 23.0291 18.7139 22.836L12.7216 16.8437C12.5969 16.7188 12.5089 16.5871 12.4576 16.4487C12.4063 16.3102 12.3806 16.1607 12.3806 16C12.3806 15.8394 12.4063 15.6898 12.4576 15.5514C12.5089 15.4129 12.5969 15.2812 12.7216 15.1564L18.7139 9.16402C18.8986 8.97958 19.1307 8.88513 19.4103 8.88069C19.6896 8.87647 19.9259 8.97091 20.1193 9.16402C20.3124 9.35736 20.4089 9.59158 20.4089 9.86669C20.4089 10.1418 20.3124 10.376 20.1193 10.5694L14.6883 16Z" fill="#656873"/>
</g>
</svg>
