<svg width="40" height="40" viewBox="0 0 40 40" fill="none" xmlns="http://www.w3.org/2000/svg">
<rect width="40" height="40" rx="20" fill="#CFE3FF"/>
<mask id="mask0_392_428" style="mask-type:alpha" maskUnits="userSpaceOnUse" x="8" y="8" width="24" height="24">
<rect x="8" y="8" width="24" height="24" fill="#D9D9D9"/>
</mask>
<g mask="url(#mask0_392_428)">
<path d="M20 21.0538L14.927 26.127C14.7885 26.2653 14.6144 26.3362 14.4048 26.3395C14.1953 26.3427 14.018 26.2718 13.873 26.127C13.7282 25.982 13.6558 25.8063 13.6558 25.6C13.6558 25.3937 13.7282 25.218 13.873 25.073L18.9463 20L13.873 14.927C13.7347 14.7885 13.6638 14.6144 13.6605 14.4048C13.6573 14.1953 13.7282 14.018 13.873 13.873C14.018 13.7282 14.1937 13.6558 14.4 13.6558C14.6063 13.6558 14.782 13.7282 14.927 13.873L20 18.9463L25.073 13.873C25.2115 13.7347 25.3856 13.6638 25.5953 13.6605C25.8048 13.6573 25.982 13.7282 26.127 13.873C26.2718 14.018 26.3443 14.1937 26.3443 14.4C26.3443 14.6063 26.2718 14.782 26.127 14.927L21.0538 20L26.127 25.073C26.2653 25.2115 26.3362 25.3856 26.3395 25.5953C26.3427 25.8048 26.2718 25.982 26.127 26.127C25.982 26.2718 25.8063 26.3443 25.6 26.3443C25.3937 26.3443 25.218 26.2718 25.073 26.127L20 21.0538Z" fill="#112185"/>
</g>
</svg>
