<svg width="48" height="49" viewBox="0 0 48 49" fill="none" xmlns="http://www.w3.org/2000/svg">
<rect y="0.508301" width="48" height="48" rx="24" fill="#263FDF"/>
<mask id="mask0_328_2951" style="mask-type:alpha" maskUnits="userSpaceOnUse" x="8" y="8" width="32" height="33">
<rect x="8" y="8.5083" width="32" height="32" fill="#D9D9D9"/>
</mask>
<g mask="url(#mask0_328_2951)">
<path d="M24.4616 33.1751H23.3333C20.3633 33.1751 17.8431 32.14 15.7726 30.0698C13.702 27.9998 12.6666 25.4802 12.6666 22.5111C12.6666 19.5418 13.7017 17.0212 15.772 14.9495C17.8424 12.8777 20.3624 11.8418 23.332 11.8418C24.8166 11.8418 26.2038 12.1191 27.4936 12.6738C28.7834 13.2285 29.9128 13.9905 30.882 14.9598C31.8513 15.9289 32.6133 17.0576 33.168 18.3458C33.7226 19.6338 34 21.0214 34 22.5085C34 25.1785 33.285 27.6695 31.855 29.9815C30.4252 32.2935 28.6034 34.1631 26.3896 35.5905C26.1845 35.6974 25.9815 35.7574 25.7806 35.7705C25.58 35.7838 25.3907 35.7391 25.213 35.6365C25.0352 35.534 24.886 35.4004 24.7653 35.2355C24.6448 35.0704 24.5777 34.8741 24.564 34.6468L24.4616 33.1751ZM23.3403 29.5391C23.6656 29.5391 23.9424 29.4244 24.1706 29.1948C24.3986 28.9652 24.5126 28.6879 24.5126 28.3628C24.5126 28.0377 24.398 27.761 24.1686 27.5328C23.9391 27.3046 23.6616 27.1905 23.3363 27.1905C23.0112 27.1905 22.7345 27.3052 22.5063 27.5348C22.2781 27.7644 22.164 28.0417 22.164 28.3668C22.164 28.6919 22.2787 28.9686 22.5083 29.1968C22.7378 29.425 23.0152 29.5391 23.3403 29.5391ZM20.506 19.5598C20.7053 19.6451 20.9045 19.6459 21.1036 19.5621C21.3027 19.4784 21.4656 19.3434 21.5923 19.1571C21.7836 18.8734 22.0297 18.6507 22.3306 18.4891C22.6315 18.3276 22.9743 18.2468 23.359 18.2468C23.953 18.2468 24.4356 18.4076 24.807 18.7291C25.1783 19.0505 25.364 19.4735 25.364 19.9981C25.364 20.323 25.2785 20.6362 25.1076 20.9378C24.9367 21.2396 24.6402 21.6016 24.218 22.0238C23.6537 22.5469 23.2426 23.0166 22.9846 23.4328C22.7264 23.849 22.5973 24.2622 22.5973 24.6725C22.5973 24.8931 22.6732 25.0817 22.825 25.2381C22.9765 25.3944 23.1594 25.4725 23.3736 25.4725C23.5878 25.4725 23.7667 25.3917 23.9103 25.2301C24.0538 25.0686 24.153 24.8759 24.2076 24.6521C24.2845 24.3257 24.4588 24.0005 24.7306 23.6765C25.0024 23.3525 25.2905 23.0384 25.595 22.7341C26.0785 22.2504 26.4327 21.7808 26.6576 21.3255C26.8825 20.8704 26.995 20.4151 26.995 19.9598C26.995 18.9916 26.662 18.2128 25.996 17.6235C25.3302 17.0339 24.4597 16.7391 23.3846 16.7391C22.7022 16.7391 22.073 16.905 21.497 17.2368C20.9212 17.5684 20.4696 17.9947 20.1423 18.5158C20.027 18.728 20.0043 18.9337 20.0743 19.1328C20.1445 19.3319 20.2884 19.4742 20.506 19.5598Z" fill="white"/>
</g>
</svg>