<svg width="49" height="48" viewBox="0 0 49 48" fill="none" xmlns="http://www.w3.org/2000/svg">
<path d="M0.75 8C0.75 3.58172 4.33172 0 8.75 0H40.75C45.1683 0 48.75 3.58172 48.75 8V40C48.75 44.4183 45.1683 48 40.75 48H8.75C4.33172 48 0.75 44.4183 0.75 40V8Z" fill="#263FDF"/>
<mask id="mask0_328_5080" style="mask-type:alpha" maskUnits="userSpaceOnUse" x="12" y="12" width="25" height="24">
<rect x="12.75" y="12" width="24" height="24" fill="#D9D9D9"/>
</mask>
<g mask="url(#mask0_328_5080)">
<path d="M17.15 31.425C16.8167 31.5583 16.5 31.5291 16.2 31.3375C15.9 31.1458 15.75 30.8666 15.75 30.5V26L23.75 24L15.75 22V17.5C15.75 17.1333 15.9 16.8541 16.2 16.6625C16.5 16.4708 16.8167 16.4416 17.15 16.575L32.55 23.075C32.9667 23.2583 33.175 23.5666 33.175 24C33.175 24.4333 32.9667 24.7416 32.55 24.925L17.15 31.425Z" fill="white"/>
</g>
</svg>
