<svg width="15" height="17" viewBox="0 0 15 17" fill="none" xmlns="http://www.w3.org/2000/svg">
<path d="M2.09076 16.9167C1.66979 16.9167 1.31347 16.7708 1.0218 16.4792C0.730138 16.1875 0.584305 15.8312 0.584305 15.4102V4.25647C0.584305 3.8355 0.730138 3.47918 1.0218 3.18751C1.31347 2.89585 1.66979 2.75001 2.09076 2.75001H3.24451V1.62814C3.24451 1.4455 3.30569 1.293 3.42805 1.17064C3.55042 1.04842 3.70292 0.987305 3.88555 0.987305C4.06833 0.987305 4.22083 1.04842 4.34306 1.17064C4.46542 1.293 4.5266 1.4455 4.5266 1.62814V2.75001H10.8408V1.6123C10.8408 1.43494 10.9006 1.2864 11.0201 1.16668C11.1399 1.0471 11.2884 0.987305 11.4658 0.987305C11.6431 0.987305 11.7916 1.0471 11.9112 1.16668C12.0309 1.2864 12.0908 1.43494 12.0908 1.6123V2.75001H13.2445C13.6655 2.75001 14.0218 2.89585 14.3135 3.18751C14.6051 3.47918 14.751 3.8355 14.751 4.25647V15.4102C14.751 15.8312 14.6051 16.1875 14.3135 16.4792C14.0218 16.7708 13.6655 16.9167 13.2445 16.9167H2.09076ZM2.09076 15.6667H13.2445C13.3087 15.6667 13.3674 15.6399 13.4208 15.5865C13.4742 15.5331 13.501 15.4744 13.501 15.4102V7.5898H1.8343V15.4102C1.8343 15.4744 1.86104 15.5331 1.91451 15.5865C1.96785 15.6399 2.0266 15.6667 2.09076 15.6667ZM1.8343 6.3398H13.501V4.25647C13.501 4.1923 13.4742 4.13355 13.4208 4.08022C13.3674 4.02675 13.3087 4.00001 13.2445 4.00001H2.09076C2.0266 4.00001 1.96785 4.02675 1.91451 4.08022C1.86104 4.13355 1.8343 4.1923 1.8343 4.25647V6.3398ZM7.66764 10.7308C7.46361 10.7308 7.28972 10.659 7.14597 10.5152C7.00236 10.3716 6.93055 10.1977 6.93055 9.99355C6.93055 9.78953 7.00236 9.61564 7.14597 9.47189C7.28972 9.32828 7.46361 9.25647 7.66764 9.25647C7.87167 9.25647 8.04555 9.32828 8.1893 9.47189C8.33292 9.61564 8.40472 9.78953 8.40472 9.99355C8.40472 10.1977 8.33292 10.3716 8.1893 10.5152C8.04555 10.659 7.87167 10.7308 7.66764 10.7308ZM4.3343 10.7308C4.13028 10.7308 3.95639 10.659 3.81264 10.5152C3.66903 10.3716 3.59722 10.1977 3.59722 9.99355C3.59722 9.78953 3.66903 9.61564 3.81264 9.47189C3.95639 9.32828 4.13028 9.25647 4.3343 9.25647C4.53833 9.25647 4.71222 9.32828 4.85597 9.47189C4.99958 9.61564 5.07139 9.78953 5.07139 9.99355C5.07139 10.1977 4.99958 10.3716 4.85597 10.5152C4.71222 10.659 4.53833 10.7308 4.3343 10.7308ZM11.001 10.7308C10.7969 10.7308 10.6231 10.659 10.4793 10.5152C10.3357 10.3716 10.2639 10.1977 10.2639 9.99355C10.2639 9.78953 10.3357 9.61564 10.4793 9.47189C10.6231 9.32828 10.7969 9.25647 11.001 9.25647C11.205 9.25647 11.3789 9.32828 11.5226 9.47189C11.6662 9.61564 11.7381 9.78953 11.7381 9.99355C11.7381 10.1977 11.6662 10.3716 11.5226 10.5152C11.3789 10.659 11.205 10.7308 11.001 10.7308ZM7.66764 14C7.46361 14 7.28972 13.9281 7.14597 13.7844C7.00236 13.6408 6.93055 13.467 6.93055 13.2629C6.93055 13.0588 7.00236 12.8849 7.14597 12.7413C7.28972 12.5975 7.46361 12.5256 7.66764 12.5256C7.87167 12.5256 8.04555 12.5975 8.1893 12.7413C8.33292 12.8849 8.40472 13.0588 8.40472 13.2629C8.40472 13.467 8.33292 13.6408 8.1893 13.7844C8.04555 13.9281 7.87167 14 7.66764 14ZM4.3343 14C4.13028 14 3.95639 13.9281 3.81264 13.7844C3.66903 13.6408 3.59722 13.467 3.59722 13.2629C3.59722 13.0588 3.66903 12.8849 3.81264 12.7413C3.95639 12.5975 4.13028 12.5256 4.3343 12.5256C4.53833 12.5256 4.71222 12.5975 4.85597 12.7413C4.99958 12.8849 5.07139 13.0588 5.07139 13.2629C5.07139 13.467 4.99958 13.6408 4.85597 13.7844C4.71222 13.9281 4.53833 14 4.3343 14ZM11.001 14C10.7969 14 10.6231 13.9281 10.4793 13.7844C10.3357 13.6408 10.2639 13.467 10.2639 13.2629C10.2639 13.0588 10.3357 12.8849 10.4793 12.7413C10.6231 12.5975 10.7969 12.5256 11.001 12.5256C11.205 12.5256 11.3789 12.5975 11.5226 12.7413C11.6662 12.8849 11.7381 13.0588 11.7381 13.2629C11.7381 13.467 11.6662 13.6408 11.5226 13.7844C11.3789 13.9281 11.205 14 11.001 14Z" fill="#9A9DA6"/>
</svg>
