<svg width="21" height="21" viewBox="0 0 21 21" fill="none" xmlns="http://www.w3.org/2000/svg">
<mask id="mask0_518_3065" style="mask-type:alpha" maskUnits="userSpaceOnUse" x="0" y="0" width="21" height="21">
<rect x="0.17627" y="0.78418" width="20" height="20" fill="#D9D9D9"/>
</mask>
<g mask="url(#mask0_518_3065)">
<path d="M4.59941 17.0342C4.17844 17.0342 3.82212 16.8883 3.53046 16.5967C3.23879 16.305 3.09296 15.9487 3.09296 15.5277V6.04064C3.09296 5.61967 3.23879 5.26335 3.53046 4.97168C3.82212 4.68001 4.17844 4.53418 4.59941 4.53418H15.7532C16.1741 4.53418 16.5305 4.68001 16.8221 4.97168C17.1138 5.26335 17.2596 5.61967 17.2596 6.04064V15.5277C17.2596 15.9487 17.1138 16.305 16.8221 16.5967C16.5305 16.8883 16.1741 17.0342 15.7532 17.0342H4.59941ZM4.59941 15.7842H15.7532C15.8173 15.7842 15.8761 15.7574 15.9294 15.704C15.9829 15.6506 16.0096 15.5919 16.0096 15.5277V6.04064C16.0096 5.97647 15.9829 5.91772 15.9294 5.86439C15.8761 5.81092 15.8173 5.78418 15.7532 5.78418H4.59941C4.53525 5.78418 4.4765 5.81092 4.42316 5.86439C4.36969 5.91772 4.34296 5.97647 4.34296 6.04064V15.5277C4.34296 15.5919 4.36969 15.6506 4.42316 15.704C4.4765 15.7574 4.53525 15.7842 4.59941 15.7842ZM6.33025 13.1561H8.50962C8.75101 13.1561 8.9556 13.0722 9.12337 12.9044C9.29115 12.7366 9.37504 12.532 9.37504 12.2906V12.0342C9.37504 11.9306 9.34136 11.8451 9.274 11.7777C9.20678 11.7105 9.12136 11.6769 9.01775 11.6769H8.73879C8.63518 11.6769 8.54969 11.7105 8.48233 11.7777C8.41511 11.8451 8.3815 11.9306 8.3815 12.0342C8.3815 12.0663 8.3681 12.0956 8.34129 12.1223C8.31462 12.149 8.28525 12.1623 8.25316 12.1623H6.5865C6.55455 12.1623 6.52518 12.149 6.49837 12.1223C6.47171 12.0956 6.45837 12.0663 6.45837 12.0342V9.53418C6.45837 9.5021 6.47171 9.47272 6.49837 9.44605C6.52518 9.41939 6.55455 9.40605 6.5865 9.40605H8.25316C8.28525 9.40605 8.31462 9.41939 8.34129 9.44605C8.3681 9.47272 8.3815 9.5021 8.3815 9.53418C8.3815 9.63779 8.41511 9.72328 8.48233 9.79064C8.54969 9.85786 8.63518 9.89147 8.73879 9.89147H9.01775C9.12136 9.89147 9.20678 9.85786 9.274 9.79064C9.34136 9.72328 9.37504 9.63779 9.37504 9.53418V9.27772C9.37504 9.03633 9.29115 8.83175 9.12337 8.66397C8.9556 8.49619 8.75101 8.41231 8.50962 8.41231H6.33025C6.08872 8.41231 5.88407 8.49619 5.71629 8.66397C5.54865 8.83175 5.46483 9.03633 5.46483 9.27772V12.2906C5.46483 12.532 5.54865 12.7366 5.71629 12.9044C5.88407 13.0722 6.08872 13.1561 6.33025 13.1561ZM14.0223 8.41231H11.843C11.6016 8.41231 11.397 8.49619 11.2292 8.66397C11.0614 8.83175 10.9775 9.03633 10.9775 9.27772V12.2906C10.9775 12.532 11.0614 12.7366 11.2292 12.9044C11.397 13.0722 11.6016 13.1561 11.843 13.1561H14.0223C14.2639 13.1561 14.4685 13.0722 14.6363 12.9044C14.8039 12.7366 14.8877 12.532 14.8877 12.2906V12.0342C14.8877 11.9306 14.8541 11.8451 14.7869 11.7777C14.7196 11.7105 14.6341 11.6769 14.5305 11.6769H14.2515C14.1479 11.6769 14.0625 11.7105 13.9952 11.7777C13.9279 11.8451 13.8942 11.9306 13.8942 12.0342C13.8942 12.0663 13.8809 12.0956 13.8542 12.1223C13.8274 12.149 13.798 12.1623 13.7661 12.1623H12.0994C12.0673 12.1623 12.038 12.149 12.0113 12.1223C11.9845 12.0956 11.9711 12.0663 11.9711 12.0342V9.53418C11.9711 9.5021 11.9845 9.47272 12.0113 9.44605C12.038 9.41939 12.0673 9.40605 12.0994 9.40605H13.7661C13.798 9.40605 13.8274 9.41939 13.8542 9.44605C13.8809 9.47272 13.8942 9.5021 13.8942 9.53418C13.8942 9.63779 13.9279 9.72328 13.9952 9.79064C14.0625 9.85786 14.1479 9.89147 14.2515 9.89147H14.5305C14.6341 9.89147 14.7196 9.85786 14.7869 9.79064C14.8541 9.72328 14.8877 9.63779 14.8877 9.53418V9.27772C14.8877 9.03633 14.8039 8.83175 14.6363 8.66397C14.4685 8.49619 14.2639 8.41231 14.0223 8.41231Z" fill="#9A9DA6"/>
</g>
</svg>
