<svg width="21" height="21" viewBox="0 0 21 21" fill="none" xmlns="http://www.w3.org/2000/svg">
<mask id="mask0_518_3059" style="mask-type:alpha" maskUnits="userSpaceOnUse" x="0" y="0" width="21" height="21">
<rect x="0.17627" y="0.78418" width="20" height="20" fill="#D9D9D9"/>
</mask>
<g mask="url(#mask0_518_3059)">
<path d="M10.1762 18.701C9.08111 18.701 8.05194 18.4932 7.08875 18.0777C6.12555 17.6621 5.28771 17.0982 4.57521 16.3858C3.86271 15.6734 3.29868 14.8357 2.88312 13.8727C2.46743 12.9096 2.25958 11.8807 2.25958 10.7858C2.25958 9.6908 2.46743 8.66156 2.88312 7.69809C3.29868 6.73462 3.86271 5.89656 4.57521 5.18393C5.28771 4.47129 6.12555 3.90705 7.08875 3.49122C8.05194 3.07552 9.08111 2.86768 10.1762 2.86768C11.2787 2.86768 12.3081 3.07441 13.2644 3.48788C14.2206 3.90136 15.0577 4.46705 15.7756 5.18497C16.4935 5.90288 17.0592 6.73997 17.4727 7.69622C17.8862 8.65247 18.0929 9.68184 18.0929 10.7843C18.0929 10.9895 18.0828 11.1896 18.0625 11.3846C18.0422 11.5796 18.0144 11.7716 17.9792 11.9606C17.9514 12.1327 17.8707 12.2652 17.7371 12.3581C17.6036 12.451 17.4508 12.4793 17.2787 12.4431C17.1068 12.4067 16.9701 12.3162 16.8685 12.1716C16.767 12.0271 16.7301 11.867 16.7579 11.6914C16.7847 11.5473 16.8056 11.3974 16.8204 11.2418C16.8354 11.0864 16.8429 10.9339 16.8429 10.7843C16.8429 9.85573 16.6715 8.98948 16.3285 8.18559C15.9856 7.3817 15.5086 6.6742 14.8975 6.06309C14.2864 5.45198 13.5789 4.97497 12.775 4.63205C11.9711 4.28913 11.1049 4.11768 10.1762 4.11768C8.31514 4.11768 6.73875 4.76351 5.44708 6.05518C4.15542 7.34684 3.50958 8.92323 3.50958 10.7843C3.50958 12.6455 4.15542 14.2218 5.44708 15.5135C6.73875 16.8052 8.31514 17.451 10.1762 17.451C10.844 17.451 11.4835 17.3591 12.0946 17.1754C12.7057 16.9916 13.2789 16.724 13.8142 16.3725C13.9604 16.288 14.1187 16.2561 14.2892 16.2768C14.4596 16.2975 14.5912 16.3802 14.6842 16.5248C14.7911 16.6711 14.8265 16.8295 14.7902 16.9998C14.7541 17.1702 14.6637 17.3019 14.5192 17.395C13.8771 17.8137 13.1942 18.1361 12.4704 18.3621C11.7465 18.588 10.9818 18.701 10.1762 18.701ZM16.0981 15.576C15.8649 15.576 15.6677 15.4955 15.5065 15.3346C15.3451 15.1734 15.2644 14.9763 15.2644 14.7431C15.2644 14.5099 15.3449 14.3127 15.5058 14.1514C15.6669 13.99 15.8641 13.9093 16.0973 13.9093C16.3305 13.9093 16.5277 13.9898 16.689 14.1508C16.8503 14.3119 16.931 14.5091 16.931 14.7423C16.931 14.9755 16.8506 15.1727 16.6896 15.3339C16.5285 15.4953 16.3313 15.576 16.0981 15.576ZM10.8012 10.5312L13.5096 13.2396C13.625 13.3548 13.684 13.4998 13.6867 13.6746C13.6893 13.8493 13.6303 13.997 13.5096 14.1177C13.3889 14.2384 13.2425 14.2987 13.0704 14.2987C12.8985 14.2987 12.7522 14.2384 12.6315 14.1177L9.77729 11.2635C9.69924 11.1855 9.64208 11.1005 9.60583 11.0085C9.56944 10.9166 9.55125 10.8216 9.55125 10.7235V7.24268C9.55125 7.06559 9.61118 6.91712 9.73104 6.79726C9.8509 6.67754 9.99937 6.61768 10.1765 6.61768C10.3537 6.61768 10.5021 6.67754 10.6217 6.79726C10.7414 6.91712 10.8012 7.06559 10.8012 7.24268V10.5312Z" fill="#9A9DA6"/>
</g>
</svg>
