<svg width="50" height="20" viewBox="0 0 50 20" fill="none" xmlns="http://www.w3.org/2000/svg">
<rect x="0.667633" width="49" height="20" rx="8" fill="#CFE3FF"/>
<path d="M12.029 6.192H13.349V7.128C13.349 7.824 13.233 8.488 13.001 9.12C12.777 9.744 12.433 10.292 11.969 10.764C11.505 11.228 10.913 11.576 10.193 11.808L9.37704 10.56C10.001 10.36 10.505 10.08 10.889 9.72C11.281 9.36 11.569 8.956 11.753 8.508C11.937 8.052 12.029 7.592 12.029 7.128V6.192ZM12.365 6.192H13.661V7.128C13.661 7.456 13.713 7.784 13.817 8.112C13.921 8.432 14.077 8.74 14.285 9.036C14.501 9.324 14.773 9.584 15.101 9.816C15.429 10.048 15.817 10.236 16.265 10.38L15.461 11.616C14.765 11.392 14.189 11.056 13.733 10.608C13.277 10.16 12.933 9.636 12.701 9.036C12.477 8.428 12.365 7.792 12.365 7.128V6.192ZM9.80904 5.736H15.857V7.008H9.80904V5.736ZM16.973 4.956H18.569V12.972H16.973V4.956ZM11.165 14.592H18.857V15.876H11.165V14.592ZM11.165 12.252H12.761V15.228H11.165V12.252ZM28.0841 4.956H29.6081V11.916H28.0841V4.956ZM26.7401 7.692H28.5041V8.988H26.7401V7.692ZM25.7921 5.16H27.2801V11.544H25.7921V5.16ZM20.0801 6.084H25.4801V7.32H20.0801V6.084ZM22.7921 7.668C23.2641 7.668 23.6801 7.752 24.0401 7.92C24.4001 8.088 24.6801 8.316 24.8801 8.604C25.0881 8.892 25.1921 9.228 25.1921 9.612C25.1921 9.996 25.0881 10.336 24.8801 10.632C24.6801 10.92 24.4001 11.148 24.0401 11.316C23.6801 11.476 23.2641 11.556 22.7921 11.556C22.3361 11.556 21.9241 11.476 21.5561 11.316C21.1961 11.148 20.9121 10.92 20.7041 10.632C20.4961 10.336 20.3921 9.996 20.3921 9.612C20.3921 9.228 20.4961 8.892 20.7041 8.604C20.9121 8.316 21.1961 8.088 21.5561 7.92C21.9241 7.752 22.3361 7.668 22.7921 7.668ZM22.7921 8.82C22.5041 8.82 22.2681 8.888 22.0841 9.024C21.9081 9.16 21.8201 9.356 21.8201 9.612C21.8201 9.868 21.9081 10.068 22.0841 10.212C22.2681 10.348 22.5041 10.416 22.7921 10.416C23.0801 10.416 23.3161 10.348 23.5001 10.212C23.6841 10.068 23.7761 9.868 23.7761 9.612C23.7761 9.356 23.6841 9.16 23.5001 9.024C23.3241 8.888 23.0881 8.82 22.7921 8.82ZM22.0001 5.064H23.5721V6.936H22.0001V5.064ZM25.8401 12.024C27.0321 12.024 27.9681 12.2 28.6481 12.552C29.3281 12.904 29.6681 13.404 29.6681 14.052C29.6681 14.692 29.3281 15.188 28.6481 15.54C27.9681 15.892 27.0321 16.068 25.8401 16.068C24.6481 16.068 23.7121 15.892 23.0321 15.54C22.3601 15.188 22.0241 14.692 22.0241 14.052C22.0241 13.404 22.3601 12.904 23.0321 12.552C23.7121 12.2 24.6481 12.024 25.8401 12.024ZM25.8521 13.212C25.1081 13.212 24.5481 13.28 24.1721 13.416C23.7961 13.552 23.6081 13.764 23.6081 14.052C23.6081 14.332 23.7961 14.54 24.1721 14.676C24.5481 14.812 25.1081 14.88 25.8521 14.88C26.5801 14.88 27.1281 14.812 27.4961 14.676C27.8721 14.54 28.0601 14.332 28.0601 14.052C28.0601 13.764 27.8721 13.552 27.4961 13.416C27.1281 13.28 26.5801 13.212 25.8521 13.212ZM35.1632 10.536H36.7472V12.492H35.1632V10.536ZM30.9272 9.996H40.9832V11.268H30.9272V9.996ZM35.9312 12.048C37.1312 12.048 38.0752 12.224 38.7632 12.576C39.4512 12.92 39.7952 13.416 39.7952 14.064C39.7952 14.696 39.4512 15.188 38.7632 15.54C38.0752 15.892 37.1312 16.068 35.9312 16.068C34.7312 16.068 33.7872 15.892 33.0992 15.54C32.4192 15.188 32.0792 14.696 32.0792 14.064C32.0792 13.416 32.4192 12.92 33.0992 12.576C33.7872 12.224 34.7312 12.048 35.9312 12.048ZM35.9312 13.26C35.4352 13.26 35.0192 13.288 34.6832 13.344C34.3552 13.4 34.1072 13.488 33.9392 13.608C33.7712 13.72 33.6872 13.872 33.6872 14.064C33.6872 14.24 33.7712 14.388 33.9392 14.508C34.1072 14.628 34.3552 14.716 34.6832 14.772C35.0192 14.828 35.4352 14.856 35.9312 14.856C36.4272 14.856 36.8392 14.828 37.1672 14.772C37.5032 14.716 37.7552 14.628 37.9232 14.508C38.0912 14.388 38.1752 14.24 38.1752 14.064C38.1752 13.872 38.0912 13.72 37.9232 13.608C37.7552 13.488 37.5032 13.4 37.1672 13.344C36.8392 13.288 36.4272 13.26 35.9312 13.26ZM34.8632 6H36.2792V6.264C36.2792 6.6 36.2192 6.92 36.0992 7.224C35.9792 7.528 35.7992 7.812 35.5592 8.076C35.3272 8.332 35.0352 8.564 34.6832 8.772C34.3312 8.98 33.9232 9.152 33.4592 9.288C32.9952 9.424 32.4792 9.52 31.9112 9.576L31.3592 8.316C31.8472 8.276 32.2792 8.208 32.6552 8.112C33.0392 8.016 33.3672 7.9 33.6392 7.764C33.9192 7.62 34.1472 7.468 34.3232 7.308C34.5072 7.14 34.6432 6.968 34.7312 6.792C34.8192 6.616 34.8632 6.44 34.8632 6.264V6ZM35.6432 6H37.0472V6.264C37.0472 6.44 37.0912 6.62 37.1792 6.804C37.2672 6.98 37.3992 7.148 37.5752 7.308C37.7592 7.468 37.9872 7.62 38.2592 7.764C38.5392 7.9 38.8672 8.016 39.2432 8.112C39.6272 8.208 40.0632 8.276 40.5512 8.316L39.9992 9.576C39.4312 9.52 38.9152 9.424 38.4512 9.288C37.9872 9.152 37.5792 8.984 37.2272 8.784C36.8832 8.576 36.5912 8.344 36.3512 8.088C36.1192 7.824 35.9432 7.54 35.8232 7.236C35.7032 6.924 35.6432 6.6 35.6432 6.264V6ZM31.8512 5.412H40.0832V6.672H31.8512V5.412Z" fill="#4F87FF"/>
</svg>
