<svg width="7" height="12" viewBox="0 0 7 12" fill="none" xmlns="http://www.w3.org/2000/svg">
<path d="M4.61386 6.00001L0.540614 1.92701C0.402281 1.78851 0.331448 1.61443 0.328114 1.40476C0.324948 1.19526 0.395781 1.01801 0.540614 0.873012C0.685614 0.728178 0.861281 0.655762 1.06761 0.655762C1.27395 0.655762 1.44961 0.728178 1.59461 0.873012L6.08886 5.36726C6.18236 5.46093 6.24836 5.55968 6.28686 5.66351C6.32536 5.76735 6.34461 5.87951 6.34461 6.00001C6.34461 6.12051 6.32536 6.23268 6.28686 6.33651C6.24836 6.44035 6.18236 6.5391 6.08886 6.63276L1.59461 11.127C1.45611 11.2653 1.28203 11.3362 1.07236 11.3395C0.862864 11.3427 0.685614 11.2718 0.540614 11.127C0.395781 10.982 0.323364 10.8063 0.323364 10.6C0.323364 10.3937 0.395781 10.218 0.540614 10.073L4.61386 6.00001Z" fill="#112185"/>
</svg>
