<svg width="21" height="21" viewBox="0 0 21 21" fill="none" xmlns="http://www.w3.org/2000/svg">
<mask id="mask0_518_3062" style="mask-type:alpha" maskUnits="userSpaceOnUse" x="0" y="0" width="21" height="21">
<rect x="0.17627" y="0.78418" width="20" height="20" fill="#D9D9D9"/>
</mask>
<g mask="url(#mask0_518_3062)">
<path d="M10.1762 18.701C9.09083 18.701 8.06653 18.493 7.10333 18.0768C6.14014 17.6607 5.30014 17.0942 4.58333 16.3773C3.86639 15.6605 3.29986 14.8205 2.88375 13.8573C2.46764 12.8941 2.25958 11.8698 2.25958 10.7843C2.25958 9.69031 2.46764 8.66386 2.88375 7.70497C3.29986 6.74608 3.86639 5.90823 4.58333 5.19143C5.30014 4.47448 6.14014 3.90795 7.10333 3.49184C8.06653 3.07573 9.09083 2.86768 10.1762 2.86768C11.2703 2.86768 12.2967 3.07573 13.2556 3.49184C14.2145 3.90795 15.0524 4.47448 15.7692 5.19143C16.4861 5.90823 17.0526 6.74608 17.4687 7.70497C17.8849 8.66386 18.0929 9.69031 18.0929 10.7843C18.0929 11.8698 17.8849 12.8941 17.4687 13.8573C17.0526 14.8205 16.4861 15.6605 15.7692 16.3773C15.0524 17.0942 14.2145 17.6607 13.2556 18.0768C12.2967 18.493 11.2703 18.701 10.1762 18.701ZM10.1762 17.4333C10.6015 16.8693 10.9594 16.3004 11.25 15.7266C11.5406 15.1529 11.7772 14.5257 11.96 13.8452H8.3925C8.58597 14.5471 8.82535 15.185 9.11062 15.7587C9.39576 16.3325 9.75097 16.8907 10.1762 17.4333ZM8.5625 17.2041C8.24305 16.7458 7.95618 16.2248 7.70187 15.641C7.44757 15.0571 7.24993 14.4585 7.10896 13.8452H4.28208C4.72222 14.7106 5.3125 15.4377 6.05292 16.0264C6.79333 16.615 7.62986 17.0076 8.5625 17.2041ZM11.79 17.2041C12.7226 17.0076 13.5592 16.615 14.2996 16.0264C15.04 15.4377 15.6303 14.7106 16.0704 13.8452H13.2435C13.0758 14.4638 12.8647 15.065 12.6104 15.6489C12.3562 16.2328 12.0828 16.7512 11.79 17.2041ZM3.75792 12.5952H6.85583C6.80347 12.2855 6.76549 11.9818 6.74187 11.6841C6.7184 11.3866 6.70667 11.0867 6.70667 10.7843C6.70667 10.482 6.7184 10.1821 6.74187 9.88455C6.76549 9.58691 6.80347 9.28323 6.85583 8.97351H3.75792C3.67778 9.25657 3.61639 9.55087 3.57375 9.85643C3.53097 10.162 3.50958 10.4713 3.50958 10.7843C3.50958 11.0974 3.53097 11.4067 3.57375 11.7123C3.61639 12.0178 3.67778 12.3121 3.75792 12.5952ZM8.10562 12.5952H12.2469C12.2991 12.2855 12.337 11.9845 12.3606 11.6923C12.3841 11.4 12.3958 11.0974 12.3958 10.7843C12.3958 10.4713 12.3841 10.1686 12.3606 9.87643C12.337 9.5842 12.2991 9.28323 12.2469 8.97351H8.10562C8.0534 9.28323 8.01548 9.5842 7.99187 9.87643C7.9684 10.1686 7.95667 10.4713 7.95667 10.7843C7.95667 11.0974 7.9684 11.4 7.99187 11.6923C8.01548 11.9845 8.0534 12.2855 8.10562 12.5952ZM13.4967 12.5952H16.5946C16.6747 12.3121 16.7361 12.0178 16.7787 11.7123C16.8215 11.4067 16.8429 11.0974 16.8429 10.7843C16.8429 10.4713 16.8215 10.162 16.7787 9.85643C16.7361 9.55087 16.6747 9.25657 16.5946 8.97351H13.4967C13.549 9.28323 13.587 9.58691 13.6106 9.88455C13.6341 10.1821 13.6458 10.482 13.6458 10.7843C13.6458 11.0867 13.6341 11.3866 13.6106 11.6841C13.587 11.9818 13.549 12.2855 13.4967 12.5952ZM13.2435 7.72351H16.0704C15.625 6.8474 15.0387 6.12031 14.3117 5.54226C13.5846 4.96434 12.744 4.56907 11.79 4.35643C12.1094 4.84143 12.3936 5.37191 12.6425 5.94788C12.8915 6.52372 13.0919 7.11559 13.2435 7.72351ZM8.3925 7.72351H11.96C11.7665 7.02684 11.5232 6.38497 11.23 5.79788C10.9367 5.2108 10.5854 4.65663 10.1762 4.13538C9.76708 4.65663 9.41583 5.2108 9.1225 5.79788C8.8293 6.38497 8.58597 7.02684 8.3925 7.72351ZM4.28208 7.72351H7.10896C7.26062 7.11559 7.46097 6.52372 7.71 5.94788C7.95889 5.37191 8.24305 4.84143 8.5625 4.35643C7.60306 4.56907 6.76118 4.96573 6.03687 5.54643C5.31243 6.12698 4.7275 6.85268 4.28208 7.72351Z" fill="#9A9DA6"/>
</g>
</svg>
