<svg width="154" height="52" viewBox="0 0 154 52" fill="none" xmlns="http://www.w3.org/2000/svg">
<g clip-path="url(#clip0_161_1199)">
<path d="M95.9617 29.2963C96.097 28.2187 96.1748 27.1247 96.1748 26.0102C96.1748 20.8475 94.6588 16.0453 92.0528 12.0053C88.5659 12.624 85.9108 15.6684 85.9108 19.3314V26.7395C85.8453 28.2023 85.5749 29.6077 85.1282 30.9393C83.4565 35.9709 79.2935 39.8758 74.1063 41.1828C73.5449 41.3262 72.9713 41.4328 72.3853 41.5106C71.697 41.6049 70.9963 41.6581 70.2793 41.6581H67.6815C59.0565 41.6581 52.0377 34.6393 52.0377 26.0143C52.0377 17.3893 59.0565 10.3704 67.6815 10.3704H70.2793C71.6232 10.3704 72.9303 10.5425 74.18 10.8621C75.6756 7.49406 78.0275 4.59311 80.9612 2.43378C77.7038 0.954626 74.0899 0.126953 70.2793 0.126953H67.6815C53.3857 0.126953 41.7942 11.7185 41.7942 26.0143C41.7942 30.8041 43.1013 35.2908 45.3712 39.1382C43.1382 40.3797 40.5732 41.0927 37.8402 41.0927C30.5919 41.0927 24.4909 36.1102 22.7618 29.3946L51.3411 0.819412H36.8528L11.0515 26.6207V0.864484H0.812103V51.1559H11.0556V41.105L14.5793 37.5812C18.9431 45.985 27.7238 51.7254 37.8484 51.7254C43.3635 51.7254 48.473 50.0168 52.6933 47.1076C56.9259 50.1233 62.0968 51.9016 67.6897 51.9016H70.2875C78.1668 51.9016 85.2184 48.3778 89.9673 42.8218C90.418 42.2932 90.8482 41.7483 91.2579 41.1828C93.4296 38.1876 94.9743 34.7089 95.6995 30.9393C95.8019 30.3985 95.888 29.8535 95.9576 29.3004L95.9617 29.2963Z" fill="white"/>
<path d="M153.268 10.9769V0.65553H128.36V10.9769H135.874V41.7442H134.809V41.7565H122.16C119.3 41.7565 116.596 40.6543 114.552 38.6588L114.363 38.4745C122.472 36.1758 128.409 28.7268 128.409 19.8805L128.401 19.3232C128.401 8.64954 119.747 -0.00415039 109.073 -0.00415039H93.3558C90.0533 -0.00415039 86.9475 0.823523 84.2268 2.28629C83.6778 2.5813 83.1451 2.9009 82.6288 3.24508C79.6418 5.24051 77.2489 8.04722 75.7493 11.3497C75.5239 11.8455 75.3191 12.3495 75.1347 12.8699C74.4176 14.8899 74.0243 17.0615 74.0243 19.3273V39.4988C79.7115 37.9172 83.9564 32.8364 84.2678 26.7272C84.2801 26.4896 84.2842 26.2478 84.2842 26.0061C84.2842 25.7643 84.276 25.5226 84.2678 25.285V19.3273C84.2678 19.2249 84.2719 19.1266 84.276 19.0282C84.4112 14.9513 87.2425 11.5423 91.0408 10.5425C91.6185 10.3909 92.2208 10.2926 92.8354 10.2598C93.0075 10.2516 93.1796 10.2434 93.3517 10.2434H109.069C114.08 10.2434 118.153 14.3203 118.153 19.3273L118.161 19.8846C118.161 24.8957 114.084 28.9685 109.077 28.9685H104.615L104.468 28.8251L104.329 28.9685H97.3671C96.6911 32.6971 95.9822 36.1676 93.9622 39.212H100.444L107.393 45.9891C111.364 49.8652 116.608 51.9999 122.156 51.9999H146.114V51.9877H153.17V41.7442H146.114V10.9769H153.264H153.268Z" fill="white"/>
</g>
<defs>
<clipPath id="clip0_161_1199">
<rect width="152.456" height="52" fill="white" transform="translate(0.812134)"/>
</clipPath>
</defs>
</svg>
