<svg width="83" height="28" viewBox="0 0 83 28" fill="none" xmlns="http://www.w3.org/2000/svg">
<g clip-path="url(#clip0_306_562)">
<path d="M51.2344 15.7749C51.3072 15.1947 51.3491 14.6056 51.3491 14.0055C51.3491 11.2256 50.5328 8.63979 49.1296 6.46439C47.2521 6.79754 45.8224 8.43681 45.8224 10.4092V14.3982C45.7871 15.1858 45.6415 15.9426 45.401 16.6596C44.5008 19.369 42.2592 21.4716 39.4661 22.1754C39.1638 22.2526 38.8549 22.3099 38.5394 22.3519C38.1688 22.4026 37.7915 22.4313 37.4054 22.4313H36.0066C31.3624 22.4313 27.583 18.6519 27.583 14.0077C27.583 9.36345 31.3624 5.58408 36.0066 5.58408H37.4054C38.1291 5.58408 38.8329 5.67674 39.5058 5.84883C40.3111 4.03527 41.5775 2.47321 43.1572 1.3105C41.4032 0.51403 39.4572 0.0683594 37.4054 0.0683594H36.0066C28.3089 0.0683594 22.0673 6.30995 22.0673 14.0077C22.0673 16.5868 22.7711 19.0027 23.9934 21.0744C22.791 21.7429 21.4098 22.1268 19.9382 22.1268C16.0353 22.1268 12.7501 19.444 11.8191 15.8279L27.2079 0.441222H19.4065L5.51351 14.3342V0.465491H0V27.5455H5.51572V22.1334L7.41313 20.236C9.76282 24.7611 14.4909 27.8521 19.9426 27.8521C22.9123 27.8521 25.6635 26.9321 27.936 25.3657C30.2151 26.9895 32.9994 27.947 36.011 27.947H37.4098C41.6525 27.947 45.4495 26.0496 48.0066 23.0579C48.2493 22.7733 48.481 22.4798 48.7016 22.1754C49.8709 20.5626 50.7027 18.6894 51.0932 16.6596C51.1484 16.3684 51.1947 16.075 51.2322 15.7771L51.2344 15.7749Z" fill="url(#paint0_linear_306_562)"/>
<path d="M82.0916 5.9109V0.353259H68.6795V5.9109H72.7259V22.4779H72.1522V22.4845H65.3414C63.8014 22.4845 62.3453 21.891 61.2443 20.8166L61.1429 20.7173C65.5091 19.4796 68.706 15.4685 68.706 10.7052L68.7016 10.4051C68.7016 4.65773 64.0419 -0.00195312 58.2945 -0.00195312H49.8312C48.053 -0.00195312 46.3806 0.443717 44.9156 1.23136C44.62 1.39021 44.3331 1.5623 44.0552 1.74763C42.4468 2.8221 41.1583 4.3334 40.3508 6.11167C40.2295 6.37863 40.1191 6.65 40.0199 6.9302C39.6338 8.0179 39.422 9.18723 39.422 10.4073V21.2689C42.4843 20.4172 44.77 17.6814 44.9377 14.3919C44.9443 14.2639 44.9465 14.1337 44.9465 14.0036C44.9465 13.8734 44.9421 13.7432 44.9377 13.6153V10.4073C44.9377 10.3522 44.9399 10.2992 44.9421 10.2463C45.0149 8.051 46.5394 6.21537 48.5847 5.67703C48.8958 5.5954 49.2201 5.54245 49.551 5.5248C49.6437 5.52039 49.7364 5.51597 49.829 5.51597H58.2923C60.9906 5.51597 63.1837 7.71123 63.1837 10.4073L63.1881 10.7074C63.1881 13.4057 60.9928 15.5987 58.2967 15.5987H55.8941L55.8147 15.5215L55.7397 15.5987H51.9912C51.6271 17.6064 51.2454 19.4752 50.1577 21.1144H53.6481L57.39 24.7636C59.5279 26.8508 62.3519 28.0003 65.3392 28.0003H78.2394V27.9936H82.0386V22.4779H78.2394V5.9109H82.0894H82.0916Z" fill="#263FDF"/>
</g>
<defs>
<linearGradient id="paint0_linear_306_562" x1="51.3491" y1="14.0077" x2="28.0485" y2="14.0077" gradientUnits="userSpaceOnUse">
<stop stop-color="#00C4AA"/>
<stop offset="1" stop-color="#263FDF"/>
</linearGradient>
<clipPath id="clip0_306_562">
<rect width="82.0916" height="28" fill="white"/>
</clipPath>
</defs>
</svg>
