<svg width="20" height="26" viewBox="0 0 20 26" fill="none" xmlns="http://www.w3.org/2000/svg">
<path d="M1 22.1795C0.716667 22.1795 0.479222 22.0837 0.287667 21.8922C0.0958891 21.7004 0 21.4627 0 21.1792C0 20.8958 0.0958891 20.6584 0.287667 20.4668C0.479222 20.2755 0.716667 20.1798 1 20.1798H2.41033V10.2308C2.41033 8.43772 2.96378 6.85227 4.07067 5.4745C5.17733 4.09672 6.59822 3.2155 8.33333 2.83083V2.00016C8.33333 1.53727 8.49522 1.14372 8.819 0.819497C9.14278 0.495497 9.53589 0.333496 9.99833 0.333496C10.461 0.333496 10.8547 0.495497 11.1793 0.819497C11.5042 1.14372 11.6667 1.53727 11.6667 2.00016V2.83083C13.4018 3.2155 14.8227 4.09672 15.9293 5.4745C17.0362 6.85227 17.5897 8.43772 17.5897 10.2308V20.1798H19C19.2833 20.1798 19.5208 20.2756 19.7123 20.4672C19.9041 20.6589 20 20.8966 20 21.1802C20 21.4635 19.9041 21.7009 19.7123 21.8925C19.5208 22.0838 19.2833 22.1795 19 22.1795H1ZM9.99767 25.9232C9.33433 25.9232 8.76722 25.6872 8.29633 25.2152C7.82522 24.7432 7.58967 24.1757 7.58967 23.5128H12.4103C12.4103 24.1779 12.1741 24.7459 11.7017 25.2168C11.2292 25.6877 10.6612 25.9232 9.99767 25.9232ZM4.41033 20.1798H15.5897V10.2308C15.5897 8.68727 15.044 7.36983 13.9527 6.2785C12.8611 5.18694 11.5436 4.64116 10 4.64116C8.45644 4.64116 7.13889 5.18694 6.04733 6.2785C4.956 7.36983 4.41033 8.68727 4.41033 10.2308V20.1798Z" fill="#656873"/>
</svg>
