<svg width="17" height="16" viewBox="0 0 17 16" fill="none" xmlns="http://www.w3.org/2000/svg">
<rect x="0.667633" width="16" height="16" rx="8" fill="#FF9A69"/>
<path d="M8.90565 4C9.94393 4 10.7058 4.21289 11.1914 4.63866C11.6844 5.05696 11.9309 5.65079 11.9309 6.42017C11.9309 6.76377 11.8748 7.09244 11.7628 7.40616C11.6582 7.71989 11.4827 8.00374 11.2362 8.2577C10.9972 8.5042 10.676 8.70215 10.2726 8.85154C9.86923 8.99346 9.37624 9.06443 8.7936 9.06443H7.99809V12H6.5415V4H8.90565ZM8.83842 5.19888H7.99809V7.85434H8.65915C9.0401 7.85434 9.36503 7.80952 9.63394 7.71989C9.90285 7.63025 10.1083 7.48459 10.2502 7.28291C10.3921 7.07376 10.4631 6.80486 10.4631 6.47619C10.4631 6.05789 10.3324 5.74043 10.0709 5.52381C9.80948 5.30719 9.39865 5.19888 8.83842 5.19888Z" fill="white"/>
</svg>
