<svg width="39" height="21" viewBox="0 0 39 21" fill="none" xmlns="http://www.w3.org/2000/svg">
<rect x="0.84375" y="0.565918" width="38" height="20" rx="8" fill="#BEEDE7"/>
<path d="M13.6287 12.6259H15.2247V16.6459H13.6287V12.6259ZM9.41669 12.1699H19.4727V13.4659H9.41669V12.1699ZM13.6167 7.51392H15.0207V7.77792C15.0207 8.14592 14.9567 8.50592 14.8287 8.85792C14.7087 9.20192 14.5247 9.52592 14.2767 9.82992C14.0287 10.1259 13.7207 10.3979 13.3527 10.6459C12.9847 10.8859 12.5607 11.0899 12.0807 11.2579C11.6007 11.4179 11.0687 11.5339 10.4847 11.6059L9.92069 10.3459C10.4247 10.2899 10.8727 10.1979 11.2647 10.0699C11.6647 9.94192 12.0127 9.78992 12.3087 9.61392C12.6047 9.43792 12.8487 9.24992 13.0407 9.04992C13.2407 8.84192 13.3847 8.62992 13.4727 8.41392C13.5687 8.18992 13.6167 7.97792 13.6167 7.77792V7.51392ZM13.8327 7.51392H15.2247V7.77792C15.2247 7.96992 15.2727 8.17792 15.3687 8.40192C15.4727 8.61792 15.6207 8.82992 15.8127 9.03792C16.0047 9.23792 16.2487 9.42992 16.5447 9.61392C16.8407 9.78992 17.1847 9.94192 17.5767 10.0699C17.9767 10.1979 18.4247 10.2899 18.9207 10.3459L18.3687 11.6059C17.7767 11.5419 17.2407 11.4259 16.7607 11.2579C16.2887 11.0819 15.8687 10.8739 15.5007 10.6339C15.1327 10.3939 14.8247 10.1219 14.5767 9.81792C14.3287 9.50592 14.1407 9.17792 14.0127 8.83392C13.8927 8.48992 13.8327 8.13792 13.8327 7.77792V7.51392ZM10.3167 6.78192H18.5487V8.04192H10.3167V6.78192ZM13.6287 5.54592H15.2247V7.21392H13.6287V5.54592ZM22.6998 7.69392H24.0078V8.11392C24.0078 8.79392 23.8958 9.43392 23.6718 10.0339C23.4478 10.6339 23.1078 11.1579 22.6518 11.6059C22.1958 12.0539 21.6158 12.3939 20.9118 12.6259L20.1318 11.3779C20.7318 11.1859 21.2198 10.9219 21.5958 10.5859C21.9798 10.2419 22.2598 9.85792 22.4358 9.43392C22.6118 9.00192 22.6998 8.56192 22.6998 8.11392V7.69392ZM22.9998 7.69392H24.2958V8.11392C24.2958 8.52992 24.3838 8.94192 24.5598 9.34992C24.7438 9.74992 25.0278 10.1139 25.4118 10.4419C25.7958 10.7619 26.2838 11.0099 26.8758 11.1859L26.1198 12.4339C25.4158 12.2259 24.8318 11.9099 24.3678 11.4859C23.9118 11.0539 23.5678 10.5499 23.3358 9.97392C23.1118 9.38992 22.9998 8.76992 22.9998 8.11392V7.69392ZM20.5158 6.82992H26.4918V8.07792H20.5158V6.82992ZM22.6998 5.59392H24.2958V7.29792H22.6998V5.59392ZM26.1318 8.74992H28.7118V10.0459H26.1318V8.74992ZM27.9078 5.52192H29.5158V13.7419H27.9078V5.52192ZM22.1718 15.1579H29.7678V16.4419H22.1718V15.1579ZM22.1718 13.0579H23.7678V15.9979H22.1718V13.0579Z" fill="#00C4AA"/>
</svg>
